PathFileType	4	(X/Y/Z)	\\Move.snu.ac.kr\motion\Animal\091204_091205_Bird\091205_bird\Project 2\Capture day 2\Session 1\pigeon_025.trc
DataRate	CameraRate	NumFrames	NumMarkers	Units	OrigDataRate	OrigDataStartFrame	OrigNumFrames
240.0	240.0	11	14	mm	240.0	338	2738
Frame#	Time	14MarkersBird:Head			14MarkersBird:C_back			14MarkersBird:Spine			14MarkersBird:L-shoulder			14MarkersBird:L-elbow			14MarkersBird:L-wrist			14MarkersBird:L-hand			14MarkersBird:R-shoulder			14MarkersBird:R-elbow			14MarkersBird:R-Wrist			14MarkersBird:R-hand			14MarkersBird:C_Tail			14MarkersBird:L-Tale			14MarkersBird:R-Tale			
		X1	Y1	Z1	X2	Y2	Z2	X3	Y3	Z3	X4	Y4	Z4	X5	Y5	Z5	X6	Y6	Z6	X7	Y7	Z7	X8	Y8	Z8	X9	Y9	Z9	X10	Y10	Z10	X11	Y11	Z11	X12	Y12	Z12	X13	Y13	Z13	X14	Y14	Z14	

2270	9.454	999.01819	960.86554	-834.72748	959.78503	961.77728	-780.42566	933.78870	947.96887	-734.26929	960.13593	958.75348	-815.06396	929.49890	970.14948	-806.73633	909.85767	971.90393	-847.09192	887.83179	984.67188	-862.53430	998.54431	955.38080	-793.02423	1003.15002	967.92078	-763.47211	1048.77795	961.34015	-765.98907	1082.71326	967.28949	-745.79742	860.79047	908.07739	-645.81195	834.58453	938.98511	-755.14020	994.02325	912.55536	-647.53223	
2271	9.458	1005.86475	954.94696	-848.18524	966.36627	955.83386	-793.82568	940.58545	942.45374	-746.91711	967.15961	953.02686	-828.70990	935.27917	961.24457	-823.66333	919.95715	958.60803	-865.49066	898.94470	967.44464	-884.26154	1005.50323	949.18439	-806.80646	1013.57257	957.50317	-778.50458	1056.87097	947.54565	-784.98645	1093.69470	947.83875	-769.67682	867.98541	899.52295	-659.88037	840.86731	930.33203	-768.28815	1000.99371	903.10443	-662.05286	
2272	9.462	1012.70142	949.23267	-861.72577	973.28839	950.21057	-807.23547	947.50189	937.33484	-759.33789	974.29523	947.55402	-842.33093	941.78467	952.51685	-840.29218	931.37311	945.68567	-883.04047	912.28137	950.21320	-904.70154	1012.36401	943.27484	-820.63489	1023.34497	947.47253	-794.03931	1063.64258	934.40112	-804.95789	1101.89319	929.30389	-794.70135	875.65192	889.22437	-674.50604	847.13409	921.92413	-780.94714	1007.53906	894.73962	-676.27618	
2273	9.467	1019.51337	943.65222	-875.38599	980.35669	944.87219	-820.64050	954.62518	931.90631	-773.67255	981.44440	942.30511	-855.98602	948.80127	944.14130	-856.37445	943.58319	933.65350	-899.38660	927.31647	933.63031	-923.24072	1019.17090	937.71198	-834.53540	1032.07959	938.17969	-809.70221	1069.13196	922.39178	-825.31305	1107.50830	912.28143	-820.05023	883.91559	877.76239	-689.58057	853.50787	913.92859	-793.24475	1013.78339	887.34326	-690.19489	
2274	9.471	1026.29834	938.15424	-889.17816	987.46674	939.82141	-834.07312	961.70795	926.65369	-787.43225	988.55267	937.25653	-869.71857	956.07617	936.28943	-871.72552	956.05927	923.08588	-914.47998	943.32068	918.52057	-939.56311	1025.97192	932.50964	-848.52521	1039.91077	929.78644	-825.12573	1073.63708	912.05426	-845.42346	1111.05042	897.47748	-844.97247	892.78119	865.72601	-704.99396	860.06531	906.16718	-805.50989	1019.98358	880.54614	-704.01654	
2275	9.475	1033.08472	932.74805	-903.11261	994.56274	934.95245	-847.58105	968.88495	921.42847	-801.20038	995.64484	932.40057	-883.52686	963.35663	929.10449	-886.25342	968.25458	914.55640	-928.52612	959.43549	905.79584	-953.80231	1032.81006	927.60040	-862.58789	1047.18921	922.31610	-840.07904	1077.68042	903.85950	-864.73206	1113.33447	885.53198	-868.73627	902.06445	853.63940	-720.72253	866.80511	898.33368	-818.11340	1026.38940	873.76489	-718.06171	
2276	9.479	1039.91760	927.44592	-917.19989	1001.66748	930.07574	-861.19794	976.02264	916.03644	-814.97638	1002.78802	927.69269	-897.38092	970.44940	922.73523	-900.00311	979.60883	908.46735	-941.86035	974.70825	896.25146	-966.47253	1039.74316	922.84149	-876.71844	1054.19971	915.79297	-854.46198	1081.87781	898.08044	-882.80908	1115.35986	876.77722	-890.63281	911.40826	841.93909	-736.85596	873.72778	890.31323	-831.25629	1033.14221	866.45685	-732.58832	
2277	9.483	1046.83386	922.21393	-931.44861	1008.90179	924.99780	-875.00714	983.09906	910.39954	-828.93347	1010.00690	922.99408	-911.27594	977.23730	917.30151	-913.10455	989.72693	904.92755	-954.77277	988.17871	890.24127	-978.29736	1046.82507	918.04547	-890.95251	1061.09204	910.27112	-868.21826	1086.68640	894.66534	-899.38440	1117.99792	871.06390	-910.09625	920.47577	830.95807	-753.49713	880.82928	882.22241	-844.93591	1040.23242	858.38483	-747.68030	
2278	9.488	1053.84705	916.97266	-945.85596	1016.37347	919.57416	-889.11633	990.28998	904.72260	-843.25439	1017.27661	918.09943	-925.25409	983.74872	912.84967	-925.67853	998.54016	903.66241	-967.36896	999.05981	887.46613	-989.97571	1054.04199	913.03027	-905.32770	1067.87012	905.77368	-881.33789	1092.21472	893.22217	-914.39142	1121.77014	867.82324	-926.80127	929.07806	820.88611	-770.61597	888.10248	874.31384	-859.00916	1047.50452	849.66907	-763.26929	
2279	9.492	1060.93945	911.64813	-960.41772	1024.11169	913.78113	-903.59790	997.65259	899.20166	-857.90521	1024.58057	912.84650	-939.38489	990.22760	909.28259	-937.74805	1006.29968	904.05615	-979.54199	1006.94000	887.05981	-1001.84692	1061.29907	907.66840	-919.84509	1074.36267	902.21588	-893.90472	1098.21777	893.14734	-927.98529	1126.78479	866.33765	-940.70886	937.19647	811.85724	-787.90808	895.51147	866.83301	-873.32123	1054.74036	840.65765	-779.19049	
2280	9.496	1068.10315	906.21021	-975.11652	1032.07446	907.70544	-918.44977	1004.98743	893.69904	-872.75391	1031.93909	907.17902	-953.70166	997.12433	906.37732	-949.23785	1013.43158	905.39923	-991.15192	1011.91565	887.97449	-1013.64063	1068.48181	901.91681	-934.45007	1080.21021	899.39441	-906.14270	1104.27527	893.83276	-940.50720	1132.79907	865.98236	-952.00891	944.90210	803.92474	-804.94324	903.01154	860.00098	-887.79321	1061.76892	831.73230	-795.24969	
